<svg xmlns="http://www.w3.org/2000/svg" width="106.75" height="82.344" viewBox="0 0 106.75 82.344">
  <defs>
    <style>
      .cls-1 {
        fill: #38af78;
        fill-rule: evenodd;
      }
    </style>
  </defs>
  <path id="bux_green.svg" class="cls-1" d="M166.73,153.809c2.818-3.084,2.847-5.06.071-8-0.865-.918-0.759-1.368.01-2.233,2.649-2.98,2.7-4.464.327-7.706a1.46,1.46,0,0,1-.029-2.14c2.727-3.626,2.162-6.416-1.8-8.614-8.984-4.983-18.012-9.887-27.025-14.817a7.463,7.463,0,0,0-3.939-1.218,10.847,10.847,0,0,0-4.211.933c-5.005,1.873-10,3.776-15,5.65Q90.5,124.89,65.869,134.119c-3.862,1.457-4.838,5.276-2.234,8.516,0.672,0.837.966,1.276,0.183,2.278-2.335,2.988-2.2,4.883.352,7.722,0.611,0.68,1.056,1.041.155,1.994-2.96,3.127-2.913,4.915.049,8.377,0.654,0.765.57,1.113-.1,1.821-3.272,3.467-2.765,6.721,1.406,9.159,8.871,5.184,17.867,10.162,26.6,15.572a10.564,10.564,0,0,0,10.781.76c11.516-4.922,23.166-9.53,34.76-14.268,9.121-3.727,18.279-7.367,27.339-11.237,4.267-1.823,4.84-5.422,1.625-8.781C165.947,155.158,165.905,154.713,166.73,153.809ZM68.408,139.183c5.919-2.257,14.656-5.539,20.578-7.789,1.023-.389,1.547-0.545,1.547-0.545,8.461,4.857,18.241,10.5,26.708,15.348,0.494,0.283,0,0,2.052,1.326h0c-5.941,2.429-13.874,5.764-19.825,8.166-0.457.185-.977,0.417-1.593,0.636-0.64-.3-1.45-0.828-2.16-1.241q-12.328-7.167-24.633-14.371c-0.622-.364,0,0-2.672-1.53h0ZM69.07,149.2l3.4-1.586h0c6.356,3.668,19.024,10.629,25.3,14.432h0c5.426-2.36,17.83-7.552,23.327-9.748v4.094c-3,1.245-7.6,3.2-10.609,4.429-3.552,1.446-9.073,3.6-12.618,5.062,0,0-.388-0.2-1.606-0.91-8.5-4.961-18.684-10.82-27.188-15.773h0Zm-0.041,10.029,3.525-1.559c2.784,1.6,1.314.752,2.243,1.289,6.286,3.63,16.878,9.29,23.093,13.039h0c5.435-2.35,14.725-6.057,20.234-8.233,0.9-.358,2.968-1.147,2.968-1.147,0,4.025-.014,4.025-0.014,4.025-6.879,2.788-16.284,6.533-23.167,9.312,0,0-.948-0.472-1.814-0.971q-12.582-7.242-25.148-14.513C70.289,160.083,69.029,159.224,69.029,159.224Zm52.062,17.562c-6.947,2.858-15.131,6.125-22.1,8.929a10,10,0,0,1-1.1.346s-1.4-.64-2.187-1.095Q83.337,177.822,71,170.636c-0.655-.382-1.863-1.092-1.863-1.092l3.546-1.527s1.176,0.6,2.04,1.1c6.513,3.751,16.5,9.265,22.981,13.074h0c5.706-2.366,14.9-6.064,20.65-8.329,0.826-.326,2.739-1.029,2.739-1.029v3.956Zm15.2-20.693c0,4.014-.038,8.029.013,12.042,0.022,1.716.027,2.519,0.027,2.519-1.814.616-8.645,3.5-10.442,4.166,0,0-.029-0.6-0.043-3.136-0.041-7.527-.111-15.055.041-22.579a5.274,5.274,0,0,0-3.12-5.354c-7.878-4.375-15.648-8.947-23.45-13.461-0.7-.4,0,0-2.88-1.845h0l10.61-4.045c6.2,4.067,20.146,11.954,26.643,15.553a4.345,4.345,0,0,1,2.638,4.349C136.216,148.229,136.3,152.162,136.3,156.093Zm-20.615-32.011L112.8,122.41s2.428-.831,3.11-1.088c5.227-1.972,10.485-3.866,15.687-5.9,1.868-.731,2.638-1.065,2.638-1.065,7.642,4.275,17.918,9.87,25.588,14.1,0.684,0.377,2.633,1.481,2.633,1.481s-2.013.939-2.684,1.214q-8.1,3.327-16.217,6.606c-0.691.28-1.922,0.768-2.4,0.932-0.363-.212-1.5-0.755-2.294-1.209Q127.264,130.8,115.681,124.082Zm25.953,20.566c3.932-1.609,8.946-3.7,12.881-5.306,1.385-.563,1.308-0.555,3.971-1.656l0.235,0.118c0.566,0.289.419,0.234,3.245,1.978,0,0-1.247.509-1.773,0.726q-7.047,2.908-14.1,5.8c-0.771.316-3.626,1.379-4.456,1.642v-3.3Zm17.351,16.8c-5.073,2.105-12.244,4.991-17.351,7.012V164.37l0.986-.4c4.7-1.917,9.395-3.846,14.1-5.746,0.452-.183,3.247-1.373,3.247-1.373l3.525,2.777S159.9,161.07,158.985,161.451Zm2.931-11.469c-5.95,2.44-14.318,5.767-20.285,8.165v-3.929h0c4.871-1.987,10.756-4.409,15.645-6.351,1.615-.641.878-0.434,1.211-0.4Z" transform="translate(-62.125 -109.094)"/>
</svg>
